<svg width="40" height="40" viewBox="0 0 40 40" fill="none" xmlns="http://www.w3.org/2000/svg">
<path d="M40 20.0005C40 31.0462 31.0457 40.0005 20 40.0005C8.9543 40.0005 0 31.0462 0 20.0005C0 8.95479 8.9543 0.000488281 20 0.000488281C31.0457 0.000488281 40 8.95479 40 20.0005ZM5.80004 20.0005C5.80004 27.8429 12.1576 34.2005 20 34.2005C27.8424 34.2005 34.2 27.8429 34.2 20.0005C34.2 12.1581 27.8424 5.80052 20 5.80052C12.1576 5.80052 5.80004 12.1581 5.80004 20.0005Z" fill="#795CB1" fill-opacity="0.3"/>
<path d="M40 20.0005C40 24.5173 38.471 28.9012 35.662 32.4384C32.853 35.9755 28.9294 38.4577 24.5299 39.4807C20.1304 40.5038 15.5142 40.0075 11.4327 38.0726C7.35128 36.1378 4.04494 32.8783 2.05202 28.8249L7.25696 26.2658C8.67194 29.1437 11.0194 31.4579 13.9173 32.8317C16.8151 34.2054 20.0926 34.5578 23.2162 33.8314C26.3399 33.1051 29.1256 31.3427 31.12 28.8314C33.1144 26.32 34.2 23.2075 34.2 20.0005H40Z" fill="url(#paint0_radial)"/>
<defs>
<radialGradient id="paint0_radial" cx="0" cy="0" r="1" gradientUnits="userSpaceOnUse" gradientTransform="translate(3 32.5001) rotate(-7.69605) scale(37.3363)">
<stop stop-color="#795CB1"/>
<stop offset="1" stop-color="#795CB1" stop-opacity="0"/>
</radialGradient>
</defs>
</svg>
