<svg width="40" height="40" viewBox="0 0 40 40" fill="none" xmlns="http://www.w3.org/2000/svg">
<g clip-path="url(#clip0)">
<path d="M40 20.0005C40 24.4444 38.5199 28.7618 35.7935 32.271C33.067 35.7803 29.2494 38.2815 24.9434 39.3799C20.6373 40.4783 16.0881 40.1113 12.0138 38.3368C7.9395 36.5623 4.5723 33.4814 2.4437 29.5804C0.315048 25.6795 -0.453743 21.1807 0.258667 16.7942C0.971087 12.4078 3.1241 8.3835 6.3779 5.3568C9.6317 2.33 13.8009 0.47308 18.2273 0.0791998C22.6538 -0.31468 27.0853 0.7769 30.8224 3.1816L27.6839 8.0591C25.0306 6.3518 21.8842 5.5768 18.7414 5.8564C15.5987 6.1361 12.6385 7.4545 10.3283 9.6035C8.0182 11.7525 6.4895 14.6097 5.9837 17.7241C5.4779 20.8384 6.0237 24.0326 7.535 26.8022C9.0464 29.5719 11.4371 31.7594 14.3298 33.0192C17.2225 34.2791 20.4525 34.5397 23.5098 33.7599C26.5671 32.98 29.2775 31.2041 31.2133 28.7126C33.1491 26.221 34.2 23.1557 34.2 20.0005H40Z" fill="#C14949"/>
<path d="M4.1432 32.1786C1.44489 28.6476 -0.000522739 24.3185 0.0350973 19.8747C0.0707073 15.4309 1.58533 11.1256 4.3398 7.6383C7.0943 4.151 10.9319 1.68039 15.2466 0.61654C19.5613 -0.44731 24.1074 -0.0438397 28.1673 1.76326C32.2273 3.5704 35.5697 6.6782 37.667 10.596C39.7643 14.5139 40.497 19.0187 39.7495 23.3994C39.0019 27.78 36.8167 31.7868 33.5387 34.7874C30.2608 37.788 26.0769 39.6115 21.6474 39.9698L21.1796 34.1887C24.3245 33.9342 27.2951 32.6396 29.6225 30.5092C31.9498 28.3788 33.5013 25.5339 34.0321 22.4237C34.5628 19.3135 34.0426 16.1151 32.5535 13.3334C31.0644 10.5517 28.6913 8.3451 25.8088 7.0621C22.9263 5.7791 19.6985 5.4926 16.6351 6.2479C13.5716 7.0033 10.847 8.7574 8.8913 11.2333C6.9356 13.7093 5.8602 16.7661 5.8349 19.9212C5.8097 23.0763 6.8359 26.1499 8.7517 28.6569L4.1432 32.1786Z" fill="#C14949" fill-opacity="0.3"/>
</g>
<defs>
<clipPath id="clip0">
<rect width="40" height="40" fill="white"/>
</clipPath>
</defs>
</svg>
