<svg width="57" height="57" viewBox="0 0 57 57" fill="none" xmlns="http://www.w3.org/2000/svg">
<path d="M48 28.0005C48 32.4444 46.5199 36.7618 43.7935 40.271C41.067 43.7803 37.2494 46.2815 32.9434 47.3799C28.6373 48.4783 24.0881 48.1113 20.0138 46.3368C15.9395 44.5623 12.5723 41.4814 10.4437 37.5804C8.31505 33.6795 7.54626 29.1807 8.25867 24.7942C8.97109 20.4078 11.1241 16.3835 14.3779 13.3568C17.6317 10.33 21.8009 8.47308 26.2273 8.0792C30.6538 7.68532 35.0853 8.7769 38.8224 11.1816L35.6839 16.0591C33.0306 14.3518 29.8842 13.5768 26.7414 13.8564C23.5987 14.1361 20.6385 15.4545 18.3283 17.6035C16.0182 19.7525 14.4895 22.6097 13.9837 25.7241C13.4779 28.8384 14.0237 32.0326 15.535 34.8022C17.0464 37.5719 19.4371 39.7594 22.3298 41.0192C25.2225 42.2791 28.4525 42.5397 31.5098 41.7599C34.5671 40.98 37.2775 39.2041 39.2133 36.7126C41.1491 34.221 42.2 31.1557 42.2 28.0005H48Z" fill="#C14949"/>
<path d="M12.1432 40.1786C9.44489 36.6476 7.99948 32.3185 8.0351 27.8747C8.07071 23.4309 9.58533 19.1256 12.3398 15.6383C15.0943 12.151 18.9319 9.68039 23.2466 8.61654C27.5613 7.55269 32.1074 7.95616 36.1673 9.76326C40.2273 11.5704 43.5697 14.6782 45.667 18.596C47.7643 22.5139 48.497 27.0187 47.7495 31.3994C47.0019 35.78 44.8167 39.7868 41.5387 42.7874C38.2608 45.788 34.0769 47.6115 29.6474 47.9698L29.1796 42.1887C32.3245 41.9342 35.2951 40.6396 37.6225 38.5092C39.9498 36.3788 41.5013 33.5339 42.0321 30.4237C42.5628 27.3135 42.0426 24.1151 40.5535 21.3334C39.0644 18.5517 36.6913 16.3451 33.8088 15.0621C30.9263 13.7791 27.6985 13.4926 24.6351 14.2479C21.5716 15.0033 18.847 16.7574 16.8913 19.2333C14.9356 21.7093 13.8602 24.7661 13.8349 27.9212C13.8097 31.0763 14.8359 34.1499 16.7517 36.6569L12.1432 40.1786Z" fill="#C14949" fill-opacity="0.3"/>
</svg>
