<svg width="26" height="32" viewBox="0 0 26 32" fill="none" xmlns="http://www.w3.org/2000/svg">
<path d="M14.3456 2.773C16.4411 0.0134533 19.3543 0 19.3543 0C19.3543 0 19.7876 2.59445 17.7059 5.09373C15.4831 7.7624 12.9565 7.32572 12.9565 7.32572C12.9565 7.32572 12.4821 5.2269 14.3456 2.773ZM13.2231 9.14312C14.3011 9.14312 16.3018 7.66252 18.9061 7.66252C23.3889 7.66252 25.1524 10.8496 25.1524 10.8496C25.1524 10.8496 21.7033 12.6116 21.7033 16.8869C21.7033 21.7098 26 23.372 26 23.372C26 23.372 22.9964 31.8186 18.9395 31.8186C17.0762 31.8186 15.6275 30.564 13.6642 30.564C11.6634 30.564 9.67798 31.8654 8.38483 31.8654C4.68021 31.8655 0 23.853 0 17.4122C0 11.0755 3.9615 7.7513 7.67722 7.7513C10.0928 7.7513 11.9673 9.14312 13.2231 9.14312Z" fill="#999999"/>
</svg>
