<svg width="31" height="31" viewBox="0 0 31 31" fill="none" xmlns="http://www.w3.org/2000/svg">
<path fill-rule="evenodd" clip-rule="evenodd" d="M25.1875 0H5.8125C2.60237 0 0 2.60237 0 5.8125V25.1875C0 28.3976 2.60237 31 5.8125 31H25.1875C28.3976 31 31 28.3976 31 25.1875V5.8125C31 2.60237 28.3976 0 25.1875 0ZM24.4003 16.6951H21.5001V27.4309H16.6543V16.6951H14.7739V13.0771H16.6543V10.7725C16.6543 7.75408 17.9107 5.95934 21.4675 5.95934H25.0733V9.56105H22.9767C21.5899 9.56105 21.5001 10.0791 21.5001 11.0417L21.4961 13.073H24.7918L24.3962 16.6911L24.4003 16.6951Z" fill="#386CF3"/>
</svg>
