<svg width="33" height="33" viewBox="0 0 33 33" fill="none" xmlns="http://www.w3.org/2000/svg">
<path d="M32.3751 16.8667C32.3751 15.51 32.2649 14.52 32.0264 13.4933H16.5179V19.6166H25.6211C25.4376 21.1383 24.4465 23.43 22.2441 24.9699L22.2132 25.1749L27.1167 28.9695L27.4564 29.0033C30.5764 26.125 32.3751 21.89 32.3751 16.8667Z" fill="#4285F4"/>
<path d="M16.5179 33C20.9777 33 24.7217 31.5332 27.4565 29.0033L22.2441 24.9699C20.8493 25.9416 18.9772 26.6199 16.5179 26.6199C12.1499 26.6199 8.44256 23.7416 7.121 19.7633L6.92728 19.7797L1.82855 23.7214L1.76187 23.9066C4.47813 29.2965 10.0575 33 16.5179 33Z" fill="#34A853"/>
<path d="M7.12099 19.7633C6.77228 18.7367 6.57048 17.6366 6.57048 16.5C6.57048 15.3633 6.77228 14.2633 7.10264 13.2366L7.09341 13.018L1.93078 9.013L1.76187 9.09326C0.642371 11.33 0 13.8417 0 16.5C0 19.1583 0.642371 21.6699 1.76187 23.9066L7.12099 19.7633Z" fill="#FBBC05"/>
<path d="M16.5179 6.37996C19.6196 6.37996 21.7118 7.71829 22.9048 8.8367L27.5665 4.29C24.7035 1.63167 20.9777 0 16.5179 0C10.0575 0 4.47812 3.70331 1.76187 9.09327L7.10264 13.2367C8.44255 9.25833 12.1499 6.37996 16.5179 6.37996Z" fill="#EB4335"/>
</svg>
