<svg width="17" height="17" viewBox="0 0 17 17" fill="none" xmlns="http://www.w3.org/2000/svg">
<path d="M9.33803 5.94601V4.23005H7.66197V5.94601H9.33803ZM9.33803 12.77V7.66197H7.66197V12.77H9.33803ZM8.5 0C10.8412 0 12.8431 0.831369 14.5059 2.49413C16.1686 4.15689 17 6.15883 17 8.5C17 10.8412 16.1686 12.8431 14.5059 14.5059C12.8431 16.1686 10.8412 17 8.5 17C6.15883 17 4.15689 16.1686 2.49413 14.5059C0.831369 12.8431 0 10.8412 0 8.5C0 6.15883 0.831369 4.15689 2.49413 2.49413C4.15689 0.831369 6.15883 0 8.5 0Z" fill="white" fill-opacity="0.3"/>
</svg>
