<svg width="6" height="16" viewBox="0 0 6 16" fill="none" xmlns="http://www.w3.org/2000/svg">
<path d="M2.82812 5.63122C3.61233 5.63122 4.27973 5.35592 4.83034 4.80531C5.38095 4.2547 5.65625 3.5873 5.65625 2.8031C5.65625 2.03558 5.38095 1.37652 4.83034 0.825913C4.27973 0.275301 3.61233 0 2.82812 0C2.04392 0 1.37652 0.275301 0.825913 0.825913C0.275301 1.37652 0 2.03558 0 2.8031C0 3.5873 0.275301 4.2547 0.825913 4.80531C1.37652 5.35592 2.04392 5.63122 2.82812 5.63122ZM2.82812 10.2363C2.04392 10.2363 1.37652 10.5116 0.825913 11.0622C0.275301 11.6128 0 12.2802 0 13.0644C0 13.8486 0.275301 14.516 0.825913 15.0666C1.37652 15.6173 2.04392 15.8926 2.82812 15.8926C3.61233 15.8926 4.27973 15.6173 4.83034 15.0666C5.38095 14.516 5.65625 13.8486 5.65625 13.0644C5.65625 12.2802 5.38095 11.6128 4.83034 11.0622C4.27973 10.5116 3.61233 10.2363 2.82812 10.2363Z" fill="white"/>
</svg>
