<svg width="114" height="31" viewBox="0 0 114 31" fill="none" xmlns="http://www.w3.org/2000/svg">
<path d="M97.2556 29.0296C98.8423 29.1839 100.428 29.3496 102.01 29.521L105.503 20.8702L108.824 30.319C110.527 30.533 112.23 30.7578 113.928 30.9924L108.107 14.4232L113.93 0.00114267H108.998L108.947 0.0719885L105.801 7.86313L103.04 0.00228535H98.1701L103.197 14.3105L97.256 29.0296H97.2556ZM93.573 28.6907V0.00114267H88.7054V28.2881C90.329 28.4137 91.9533 28.5486 93.573 28.6903V28.6907ZM57.0086 27.0863C58.3226 27.0863 59.6351 27.0962 60.9453 27.1069V16.5669H66.7926V12.0785H60.9457V4.4949H67.6802V0.00114267H56.0592V27.0901C56.3748 27.0901 56.6919 27.0852 57.0086 27.0863ZM41.896 27.3606C43.5176 27.3027 45.1407 27.2539 46.7662 27.2143V4.49566H51.3158V0.00228535H37.3463V4.49566H41.8967V27.3606H41.896ZM4.66929 30.3856V13.2931L10.4327 29.6954C12.2051 29.4959 13.9801 29.3081 15.7601 29.1306V0.00152357H11.0897V17.7065L4.87057 0.00152357H0V31H0.0292424C1.57225 30.7859 3.12058 30.5825 4.66929 30.3856ZM32.6527 4.49452V0.00152357H21.0306V28.6449C24.8974 28.3102 28.7686 28.0294 32.6432 27.8028V23.3056C30.3965 23.4366 28.1543 23.5875 25.9175 23.7554V16.5688H31.7648V12.0777H25.9175V4.49452H32.6527ZM77.3267 23.0908V0H72.4379V27.377C76.3268 27.5202 80.2005 27.7198 84.0612 27.9711V23.4713C81.8206 23.3262 79.5761 23.2001 77.3267 23.0904" fill="white"/>
</svg>
